ffmpeg started on 2016-11-30 at 01:01:51
Report written to "Output/x264/results/ffmpeg/old_town_cross_2160p50faster1000k.log"
Command line:
Tools/ffmpeg/ffmpeg -benchmark -y -i Input/y4m/old_town_cross_2160p50.y4m -c:v libx264 -preset faster -b:v 1000k -an Output/x264/encoded/old_town_cross_2160p50faster1000k.mkv
ffmpeg version N-82227-gdb23fde Copyright (c) 2000-2016 the FFmpeg developers
  built with gcc 5.4.0 (Ubuntu 5.4.0-6ubuntu1~16.04.2) 20160609
  configuration: --prefix=/home/jaroslav/ffmpeg_build --pkg-config-flags=--static --extra-cflags=-I/home/jaroslav/ffmpeg_build/include --extra-ldflags=-L/home/jaroslav/ffmpeg_build/lib --bindir=/home/jaroslav/bin --enable-gpl --enable-libass --enable-libfdk-aac --enable-libfreetype --enable-libmp3lame --enable-libopus --enable-libtheora --enable-libvorbis --enable-libvpx --enable-libx264 --enable-libx265 --enable-nvenc --enable-libmfx --enable-libxvid --enable-libgsm --enable-libopencore-amrnb --enable-version3 --enable-nonfree
  libavutil      55. 35.100 / 55. 35.100
  libavcodec     57. 66.101 / 57. 66.101
  libavformat    57. 57.100 / 57. 57.100
  libavdevice    57.  2.100 / 57.  2.100
  libavfilter     6. 66.100 /  6. 66.100
  libswscale      4.  3.100 /  4.  3.100
  libswresample   2.  4.100 /  2.  4.100
  libpostproc    54.  2.100 / 54.  2.100
Input #0, yuv4mpegpipe, from 'Input/y4m/old_town_cross_2160p50.y4m':
  Duration: 00:00:10.00, start: 0.000000, bitrate: 4976642 kb/s
    Stream #0:0: Video: rawvideo (I420 / 0x30323449), yuv420p(progressive), 3840x2160, SAR 1:1 DAR 16:9, 50 fps, 50 tbr, 50 tbn, 50 tbc
[libx264 @ 0x3f0e120] using SAR=1/1
[libx264 @ 0x3f0e120] using cpu capabilities: MMX2 SSE2Fast SSSE3 SSE4.2 AVX FMA3 AVX2 LZCNT BMI2
[libx264 @ 0x3f0e120] profile High, level 5.2
[libx264 @ 0x3f0e120] 264 - core 148 - H.264/MPEG-4 AVC codec - Copyleft 2003-2016 - http://www.videolan.org/x264.html - options: cabac=1 ref=2 deblock=1:0:0 analyse=0x3:0x113 me=hex subme=4 psy=1 psy_rd=1.00:0.00 mixed_ref=0 me_range=16 chroma_me=1 trellis=1 8x8dct=1 cqm=0 deadzone=21,11 fast_pskip=1 chroma_qp_offset=0 threads=6 lookahead_threads=1 sliced_threads=0 nr=0 decimate=1 interlaced=0 bluray_compat=0 constrained_intra=0 bframes=3 b_pyramid=2 b_adapt=1 b_bias=0 direct=1 weightb=1 open_gop=0 weightp=1 keyint=250 keyint_min=25 scenecut=40 intra_refresh=0 rc_lookahead=20 rc=abr mbtree=1 bitrate=1000 ratetol=1.0 qcomp=0.60 qpmin=0 qpmax=69 qpstep=4 ip_ratio=1.40 aq=1:1.00
Output #0, matroska, to 'Output/x264/encoded/old_town_cross_2160p50faster1000k.mkv':
  Metadata:
    encoder         : Lavf57.57.100
    Stream #0:0: Video: h264 (libx264) (H264 / 0x34363248), yuv420p, 3840x2160 [SAR 1:1 DAR 16:9], q=-1--1, 1000 kb/s, 50 fps, 1k tbn, 50 tbc
    Metadata:
      encoder         : Lavc57.66.101 libx264
    Side data:
      cpb: bitrate max/min/avg: 0/0/1000000 buffer size: 0 vbv_delay: -1
Stream mapping:
  Stream #0:0 -> #0:0 (rawvideo (native) -> h264 (libx264))
Press [q] to stop, [?] for help
frame=   27 fps= 21 q=0.0 size=       0kB time=00:00:00.00 bitrate=N/A speed=   0x    frame=   36 fps= 20 q=58.0 size=       1kB time=00:00:00.06 bitrate=  96.1kbits/s speed=0.034x    frame=   48 fps= 19 q=58.0 size=       1kB time=00:00:00.30 bitrate=  19.5kbits/s speed=0.12x    frame=   60 fps= 19 q=57.0 size=       1kB time=00:00:00.54 bitrate=  10.8kbits/s speed=0.168x    frame=   72 fps= 18 q=56.0 size=       1kB time=00:00:00.78 bitrate=   7.5kbits/s speed=0.199x    frame=   84 fps= 18 q=56.0 size=       1kB time=00:00:01.02 bitrate=   5.7kbits/s speed=0.22x    frame=   95 fps= 19 q=55.0 size=       1kB time=00:00:01.24 bitrate=   4.7kbits/s speed=0.242x    frame=  104 fps= 18 q=55.0 size=       1kB time=00:00:01.42 bitrate=   4.1kbits/s speed=0.244x    frame=  116 fps= 18 q=55.0 size=       1kB time=00:00:01.66 bitrate=   3.5kbits/s speed=0.255x    frame=  128 fps= 18 q=55.0 size=       1kB time=00:00:01.90 bitrate=   3.1kbits/s speed=0.263x    frame=  140 fps= 18 q=55.0 size=       1kB time=00:00:02.14 bitrate=   2.7kbits/s speed=0.27x    frame=  152 fps= 18 q=55.0 size=       1kB time=00:00:02.38 bitrate=   2.5kbits/s speed=0.275x    frame=  164 fps= 18 q=55.0 size=       1kB time=00:00:02.62 bitrate=   2.2kbits/s speed=0.28x    frame=  176 fps= 17 q=55.0 size=       1kB time=00:00:02.86 bitrate=   2.0kbits/s speed=0.284x    frame=  188 fps= 17 q=55.0 size=       1kB time=00:00:03.10 bitrate=   1.9kbits/s speed=0.288x    frame=  200 fps= 17 q=55.0 size=       1kB time=00:00:03.34 bitrate=   1.8kbits/s speed=0.291x    frame=  212 fps= 17 q=55.0 size=       1kB time=00:00:03.58 bitrate=   1.6kbits/s speed=0.294x    frame=  224 fps= 17 q=55.0 size=       1kB time=00:00:03.82 bitrate=   1.5kbits/s speed=0.296x    frame=  236 fps= 17 q=55.0 size=       1kB time=00:00:04.06 bitrate=   1.4kbits/s speed=0.298x    frame=  242 fps= 17 q=55.0 size=       1kB time=00:00:04.18 bitrate=   1.4kbits/s speed=0.289x    frame=  245 fps= 16 q=55.0 size=       1kB time=00:00:04.24 bitrate=   1.4kbits/s speed=0.279x    frame=  250 fps= 16 q=55.0 size=       1kB time=00:00:04.34 bitrate=   1.4kbits/s speed=0.275x    frame=  255 fps= 16 q=55.0 size=       1kB time=00:00:04.44 bitrate=   1.3kbits/s speed=0.271x    frame=  260 fps= 15 q=56.0 size=       1kB time=00:00:04.54 bitrate=   1.3kbits/s speed=0.268x    frame=  265 fps= 15 q=56.0 size=       1kB time=00:00:04.64 bitrate=   1.3kbits/s speed=0.265x    frame=  270 fps= 15 q=56.0 size=       1kB time=00:00:04.74 bitrate=   1.2kbits/s speed=0.262x    frame=  275 fps= 15 q=53.0 size=       1kB time=00:00:04.84 bitrate=   1.2kbits/s speed=0.257x    frame=  285 fps= 15 q=56.0 size=     631kB time=00:00:05.04 bitrate=1024.8kbits/s speed=0.261x    frame=  296 fps= 15 q=56.0 size=     631kB time=00:00:05.26 bitrate= 982.0kbits/s speed=0.265x    frame=  305 fps= 15 q=57.0 size=     631kB time=00:00:05.44 bitrate= 949.5kbits/s speed=0.265x    frame=  316 fps= 15 q=57.0 size=     631kB time=00:00:05.66 bitrate= 912.6kbits/s speed=0.269x    frame=  325 fps= 15 q=57.0 size=     631kB time=00:00:05.84 bitrate= 884.5kbits/s speed=0.269x    frame=  337 fps= 15 q=57.0 size=     631kB time=00:00:06.08 bitrate= 849.6kbits/s speed=0.271x    frame=  349 fps= 15 q=57.0 size=     631kB time=00:00:06.32 bitrate= 817.3kbits/s speed=0.273x    frame=  361 fps= 15 q=57.0 size=     631kB time=00:00:06.56 bitrate= 787.4kbits/s speed=0.275x    frame=  373 fps= 15 q=57.0 size=     631kB time=00:00:06.80 bitrate= 759.6kbits/s speed=0.277x    frame=  384 fps= 15 q=57.0 size=     631kB time=00:00:07.02 bitrate= 735.8kbits/s speed=0.28x    frame=  393 fps= 15 q=57.0 size=     631kB time=00:00:07.20 bitrate= 717.4kbits/s speed=0.28x    frame=  405 fps= 15 q=57.0 size=     631kB time=00:00:07.44 bitrate= 694.3kbits/s speed=0.281x    frame=  417 fps= 15 q=57.0 size=     631kB time=00:00:07.68 bitrate= 672.6kbits/s speed=0.283x    frame=  428 fps= 15 q=57.0 size=     631kB time=00:00:07.90 bitrate= 653.9kbits/s speed=0.286x    frame=  437 fps= 15 q=57.0 size=     631kB time=00:00:08.08 bitrate= 639.3kbits/s speed=0.285x    frame=  449 fps= 15 q=57.0 size=     631kB time=00:00:08.32 bitrate= 620.9kbits/s speed=0.286x    frame=  461 fps= 15 q=58.0 size=     631kB time=00:00:08.56 bitrate= 603.5kbits/s speed=0.288x    frame=  471 fps= 16 q=58.0 size=     631kB time=00:00:08.76 bitrate= 589.7kbits/s speed=0.289x    frame=  481 fps= 16 q=58.0 size=     631kB time=00:00:08.96 bitrate= 576.5kbits/s speed=0.289x    frame=  483 fps= 15 q=58.0 size=     631kB time=00:00:09.00 bitrate= 574.0kbits/s speed=0.285x    frame=  486 fps= 15 q=58.0 size=     631kB time=00:00:09.06 bitrate= 570.2kbits/s speed=0.28x    frame=  491 fps= 15 q=58.0 size=     631kB time=00:00:09.16 bitrate= 563.9kbits/s speed=0.278x    frame=  496 fps= 15 q=58.0 size=     631kB time=00:00:09.26 bitrate= 557.8kbits/s speed=0.276x    frame=  500 fps= 15 q=58.0 size=     631kB time=00:00:09.34 bitrate= 553.1kbits/s speed=0.274x    frame=  500 fps= 14 q=-1.0 Lsize=    1401kB time=00:00:09.94 bitrate=1154.5kbits/s speed=0.283x    
video:1397kB audio:0kB subtitle:0kB other streams:0kB global headers:0kB muxing overhead: 0.305054%
bench: utime=79.324s
bench: maxrss=1341712kB
[libx264 @ 0x3f0e120] frame I:3     Avg QP:50.37  size: 23777
[libx264 @ 0x3f0e120] frame P:183   Avg QP:51.00  size:  4949
[libx264 @ 0x3f0e120] frame B:314   Avg QP:51.00  size:  1441
[libx264 @ 0x3f0e120] consecutive B-frames: 16.0%  0.8%  0.0% 83.2%
[libx264 @ 0x3f0e120] mb I  I16..4: 69.6% 30.4%  0.0%
[libx264 @ 0x3f0e120] mb P  I16..4:  3.7%  2.0%  0.0%  P16..4:  3.8%  0.2%  0.0%  0.0%  0.0%    skip:90.2%
[libx264 @ 0x3f0e120] mb B  I16..4:  0.0%  0.0%  0.0%  B16..8:  2.4%  0.0%  0.0%  direct: 0.4%  skip:97.1%  L0:34.4% L1:65.6% BI: 0.0%
[libx264 @ 0x3f0e120] final ratefactor: 49.78
[libx264 @ 0x3f0e120] 8x8 transform intra:34.1% inter:98.1%
[libx264 @ 0x3f0e120] coded y,uvDC,uvAC intra: 5.8% 19.4% 0.1% inter: 0.1% 0.3% 0.0%
[libx264 @ 0x3f0e120] i16 v,h,dc,p: 63% 30%  6%  2%
[libx264 @ 0x3f0e120] i8 v,h,dc,ddl,ddr,vr,hd,vl,hu:  6% 13% 73%  1%  1%  1%  2%  1%  2%
[libx264 @ 0x3f0e120] i8c dc,h,v,p: 99%  0%  0%  0%
[libx264 @ 0x3f0e120] Weighted P-Frames: Y:0.5% UV:0.0%
[libx264 @ 0x3f0e120] ref P L0: 72.7% 27.3%
[libx264 @ 0x3f0e120] ref B L0: 81.0% 19.0%
[libx264 @ 0x3f0e120] ref B L1: 93.8%  6.2%
[libx264 @ 0x3f0e120] kb/s:1143.64
